<?xml version="1.0" encoding="utf-8"?>
<!-- Generator: Adobe Illustrator 16.0.4, SVG Export Plug-In . SVG Version: 6.00 Build 0)  -->
<!DOCTYPE svg PUBLIC "-//W3C//DTD SVG 1.1//EN" "http://www.w3.org/Graphics/SVG/1.1/DTD/svg11.dtd">
<svg version="1.1" id="Layer_1" xmlns="http://www.w3.org/2000/svg" xmlns:xlink="http://www.w3.org/1999/xlink" x="0px" y="0px"
	 width="150.758px" height="84.587px" viewBox="1.282 2.815 150.758 84.587" enable-background="new 1.282 2.815 150.758 84.587"
	 xml:space="preserve">
<g>
	<path fill="none" d="M22.507,80.883c0-1.359-1.109-1.555-2.031-1.555h-0.248v3.145h0.297
		C21.477,82.472,22.507,82.265,22.507,80.883z"/>
	<path fill="none" d="M113.954,79.19c-1.753,0-2.981,1.601-2.981,3.513c0,1.98,1.367,3.512,2.981,3.512
		c1.614,0,2.982-1.532,2.982-3.512C116.936,80.791,115.708,79.19,113.954,79.19z"/>
	<path fill="none" d="M95.763,79.19c-1.753,0-2.981,1.601-2.981,3.513c0,1.98,1.367,3.512,2.981,3.512s2.981-1.532,2.981-3.512
		C98.744,80.791,97.516,79.19,95.763,79.19z"/>
	<polygon fill="none" points="8.502,83.878 11.157,83.878 9.83,80.365 	"/>
	<path fill="none" d="M57.348,79.19c-1.753,0-2.981,1.601-2.981,3.513c0,1.98,1.367,3.512,2.981,3.512
		c1.614,0,2.981-1.532,2.981-3.512C60.329,80.791,59.101,79.19,57.348,79.19z"/>
	<path fill="none" d="M27.655,79.19c-1.753,0-2.981,1.601-2.981,3.513c0,1.98,1.367,3.512,2.981,3.512
		c1.614,0,2.981-1.532,2.981-3.512C30.636,80.791,29.408,79.19,27.655,79.19z"/>
	<path fill="none" d="M39.693,79.351h-0.327v6.703h0.327c1.901,0,3.546-0.829,3.546-3.351
		C43.239,80.169,41.594,79.351,39.693,79.351z"/>
	<polygon fill="none" points="33.308,83.878 35.962,83.878 34.635,80.365 	"/>
	<path fill="none" d="M78.735,28.277h-0.809v8.858h0.641c4.825,0,6.619-1.178,6.619-4.345
		C85.186,28.996,82.918,28.277,78.735,28.277z"/>
	<polygon fill="none" points="141.952,83.878 144.606,83.878 143.278,80.365 	"/>
	<path fill="none" d="M97.947,49.019c0.99,0.788,2.12,1.78,3.137,3.271l2.415,3.607c-1.12-2.571-1.929-5.332-2.379-8.24
		C100.174,48.135,99.122,48.587,97.947,49.019z"/>
	<path fill="none" d="M49.015,52.29l4.425,6.611V44.572c-1.78,1.786-4.224,3.216-7.562,4.446
		C46.868,49.806,47.998,50.799,49.015,52.29z"/>
	<path fill="none" d="M4.998,80.883c0-1.359-1.109-1.555-2.031-1.555H2.72v3.145h0.297C3.968,82.472,4.998,82.265,4.998,80.883z"/>
	<path fill="#FFFFFF" d="M82.271,10.931H55.463v32.591l68.628,0.076c-0.091-0.615-0.141-1.242-0.141-1.881
		c0-7.354,6.059-13.337,13.506-13.337c4.137,0,8.347,1.744,12.537,5.188l-0.594-21.3c-4.676-1.537-9.693-2.346-14.553-2.346
		c-10.803,0-20.797,5.289-26.735,14.147l-1.046,1.561l-0.651-1.763C102.257,12.612,89.503,10.931,82.271,10.931z M78.567,39.055
		h-2.56V26.357h2.728c2.717,0,8.37,0,8.37,6.433C87.105,39.055,81.122,39.055,78.567,39.055z"/>
	<path fill="#EF3E33" d="M124.202,44.238l-68.739-0.076v28.34h20.543V52.124h1.976l10.104,20.377h24.216l-12.81-19.136
		c-1.042-1.529-2.237-2.456-3.291-3.274l-0.745-0.583v-1.663l0.657-0.218c2.138-0.713,3.866-1.468,5.282-2.307l1.275-0.755
		l0.167,1.474c1.807,15.919,14.878,27.474,31.081,27.474c4.347,0,11.885-0.764,15.478-2.202l0.592-20.895
		c-3.76,3.118-7.769,4.639-12.197,4.639C131.055,55.054,125.429,50.39,124.202,44.238z"/>
	<path fill="#004FA3" d="M25.857,56.331l8.97,18.09h43.099v-18.09l8.971,18.09h29.001l-5.987-8.944
		c6.017,6.207,14.505,9.955,24.009,9.955c3.553,0,12.726-0.659,16.833-2.619l0.529-0.253l0.758-26.704l-1.698,1.658
		c-3.924,3.835-7.913,5.621-12.549,5.621c-6.574,0-11.923-5.122-11.923-11.418c0-6.296,5.197-11.418,11.586-11.418
		c4.187,0,8.528,2.066,12.902,6.142l1.678,1.563l-0.756-27.123l-0.628-0.216c-5.052-1.742-10.518-2.663-15.807-2.663
		c-10.852,0-20.935,5.041-27.316,13.569c-3.836-8.116-12.724-12.558-25.258-12.558H53.44v9.218
		c-4.525-5.972-12.627-9.218-23.238-9.218h-1.417l-1.958-6.197l-2.004,6.197H1.371v12.276H1.282l0.088,0.066v53.067h24.487V56.331z
		 M107.065,25.629l1.046-1.561c5.938-8.859,15.932-14.147,26.735-14.147c4.86,0,9.877,0.81,14.553,2.346l0.594,21.3
		c-4.19-3.444-8.399-5.188-12.537-5.188c-7.448,0-13.506,5.983-13.506,13.337c0,0.639,0.049,1.266,0.141,1.881l-68.628-0.076V10.931
		h26.808c7.232,0,19.986,1.681,24.143,12.936L107.065,25.629z M149.398,71.31c-3.593,1.438-11.131,2.202-15.478,2.202
		c-16.203,0-29.274-11.554-31.081-27.474l-0.167-1.474l-1.275,0.755c-1.416,0.839-3.144,1.594-5.282,2.307l-0.657,0.218v1.663
		l0.745,0.583c1.054,0.818,2.249,1.745,3.291,3.274l12.81,19.136H88.087L77.983,52.124h-1.976v20.377H55.463v-28.34l68.739,0.076
		c1.227,6.153,6.853,10.816,13.591,10.816c4.429,0,8.438-1.521,12.197-4.639L149.398,71.31z M101.084,52.29
		c-1.017-1.491-2.147-2.484-3.137-3.271c1.175-0.432,2.227-0.883,3.173-1.361c0.451,2.908,1.259,5.669,2.379,8.24L101.084,52.29z
		 M53.44,58.901l-4.425-6.611c-1.018-1.492-2.147-2.484-3.137-3.272c3.339-1.23,5.782-2.66,7.562-4.446V58.901z M31.259,23.208
		h15.255l-12.288,9.216l4.733,14.515l-12.142-8.935l-12.128,8.925l4.783-14.506L7.081,23.208h15.17l4.556-14.09L31.259,23.208z"/>
	<path fill="#004FA3" d="M78.735,26.357h-2.728v12.698h2.56c2.555,0,8.538,0,8.538-6.265C87.105,26.357,81.452,26.357,78.735,26.357
		z M78.567,37.135h-0.641v-8.858h0.809c4.184,0,6.451,0.719,6.451,4.513C85.186,35.958,83.392,37.135,78.567,37.135z"/>
	<polygon fill="#FFFFFF" points="22.25,23.208 7.081,23.208 19.473,32.422 14.689,46.928 26.817,38.003 38.959,46.938 
		34.226,32.424 46.514,23.208 31.259,23.208 26.807,9.118 	"/>
	<path fill="#004FA3" d="M6.33,86.878l-2.253-3.611c1.08-0.149,1.792-1.186,1.792-2.429c0-0.83-0.356-1.647-0.98-2.074
		c-0.594-0.392-1.308-0.403-1.971-0.403H1.789v8.684H2.72v-3.674h0.386l2.199,3.674h0.958h0.17h0.83l0.852-2.177h3.427l0.852,2.177
		h1L9.83,77.992L6.33,86.878z M3.017,82.472H2.72v-3.145h0.248c0.921,0,2.031,0.196,2.031,1.555
		C4.998,82.265,3.968,82.472,3.017,82.472z M8.502,83.878l1.328-3.513l1.327,3.513H8.502z"/>
	<rect x="13.877" y="78.361" fill="#004FA3" width="0.931" height="8.684"/>
	<polygon fill="#004FA3" points="16.627,78.361 15.696,78.361 15.696,87.045 18.896,87.045 18.896,86.054 16.627,86.054 	"/>
	<path fill="#004FA3" d="M23.378,80.838c0-0.83-0.356-1.647-0.981-2.074c-0.594-0.392-1.307-0.403-1.971-0.403h-1.129v8.684h0.931
		v-3.674h0.387l2.199,3.674h1.129l-2.357-3.778C22.666,83.117,23.378,82.081,23.378,80.838z M20.526,82.472h-0.297v-3.145h0.248
		c0.921,0,2.031,0.196,2.031,1.555C22.507,82.265,21.477,82.472,20.526,82.472z"/>
	<path fill="#004FA3" d="M27.655,78.177c-2.14,0-3.913,2.039-3.913,4.527c0,2.58,1.753,4.526,3.913,4.526s3.913-1.946,3.913-4.526
		C31.568,80.215,29.795,78.177,27.655,78.177z M27.655,86.216c-1.615,0-2.981-1.532-2.981-3.512c0-1.912,1.228-3.513,2.981-3.513
		c1.753,0,2.981,1.601,2.981,3.513C30.636,84.684,29.27,86.216,27.655,86.216z"/>
	<path fill="#004FA3" d="M31.069,87.045h1l0.852-2.177h3.427l0.852,2.177h1l-3.566-9.053L31.069,87.045z M33.308,83.878l1.327-3.513
		l1.327,3.513H33.308z"/>
	<path fill="#004FA3" d="M39.98,78.361h-1.545v8.684h1.515c2.358,0,4.22-1.428,4.22-4.388C44.17,79.766,42.268,78.361,39.98,78.361z
		 M39.693,86.054h-0.327v-6.703h0.327c1.901,0,3.546,0.818,3.546,3.353C43.239,85.225,41.594,86.054,39.693,86.054z"/>
	<path fill="#004FA3" d="M47.208,82.749c0,2.511,1.763,4.48,3.893,4.48c0.654,0,1.387-0.219,1.961-0.61v-1.279
		c-0.555,0.576-1.258,0.898-1.991,0.898c-1.665,0-2.932-1.624-2.932-3.524c0-1.923,1.278-3.548,2.951-3.548
		c0.704,0,1.437,0.3,1.972,0.852v-1.255c-0.565-0.403-1.229-0.587-1.882-0.587C48.981,78.177,47.208,80.18,47.208,82.749z"/>
	<path fill="#004FA3" d="M57.348,78.177c-2.14,0-3.913,2.039-3.913,4.527c0,2.58,1.753,4.526,3.913,4.526
		c2.159,0,3.912-1.946,3.912-4.526C61.26,80.215,59.487,78.177,57.348,78.177z M57.348,86.216c-1.615,0-2.981-1.532-2.981-3.512
		c0-1.912,1.228-3.513,2.981-3.513c1.753,0,2.981,1.601,2.981,3.513C60.329,84.684,58.962,86.216,57.348,86.216z"/>
	<polygon fill="#004FA3" points="65.258,84.834 62.692,77.992 61.167,87.045 62.128,87.045 63,81.309 63.02,81.309 65.258,87.229 
		67.497,81.309 67.517,81.309 68.388,87.045 69.349,87.045 67.823,77.992 	"/>
	<polygon fill="#004FA3" points="73.574,84.834 71.009,77.992 69.484,87.045 70.444,87.045 71.316,81.309 71.335,81.309 
		73.574,87.229 75.813,81.309 75.833,81.309 76.704,87.045 77.665,87.045 76.14,77.992 	"/>
	<rect x="78.354" y="78.361" fill="#004FA3" width="0.931" height="8.684"/>
	<path fill="#004FA3" d="M82.719,81.908l-0.535-0.242c-0.466-0.208-1.04-0.564-1.04-1.244c0-0.76,0.654-1.232,1.248-1.232
		c0.564,0,0.921,0.276,1.198,0.817l0.743-0.518c-0.406-0.84-1.09-1.313-1.921-1.313c-1.129,0-2.199,0.841-2.199,2.246
		c0,1.209,0.772,1.774,1.625,2.201l0.515,0.252c0.644,0.312,1.288,0.714,1.288,1.647c0,0.91-0.575,1.693-1.377,1.693
		s-1.456-0.69-1.446-1.646l-0.94,0.23c0.158,1.394,1.1,2.43,2.308,2.43c1.337,0,2.387-1.129,2.387-2.707
		C84.572,83.071,83.779,82.392,82.719,81.908z"/>
	<path fill="#004FA3" d="M87.728,81.908l-0.535-0.242c-0.465-0.208-1.04-0.564-1.04-1.244c0-0.76,0.654-1.232,1.248-1.232
		c0.564,0,0.921,0.276,1.199,0.817l0.743-0.518c-0.406-0.84-1.089-1.313-1.922-1.313c-1.129,0-2.199,0.841-2.199,2.246
		c0,1.209,0.773,1.774,1.625,2.201l0.515,0.252c0.644,0.312,1.288,0.714,1.288,1.647c0,0.91-0.574,1.693-1.377,1.693
		c-0.802,0-1.456-0.69-1.446-1.646l-0.941,0.23c0.159,1.394,1.1,2.43,2.308,2.43c1.337,0,2.387-1.129,2.387-2.707
		C89.58,83.071,88.787,82.392,87.728,81.908z"/>
	<rect x="90.358" y="78.361" fill="#004FA3" width="0.931" height="8.684"/>
	<path fill="#004FA3" d="M95.763,78.177c-2.14,0-3.912,2.039-3.912,4.527c0,2.58,1.752,4.526,3.912,4.526
		c2.159,0,3.912-1.946,3.912-4.526C99.675,80.215,97.902,78.177,95.763,78.177z M95.763,86.216c-1.615,0-2.981-1.532-2.981-3.512
		c0-1.912,1.228-3.513,2.981-3.513c1.753,0,2.981,1.601,2.981,3.513C98.744,84.684,97.378,86.216,95.763,86.216z"/>
	<polygon fill="#004FA3" points="105.784,84.776 100.177,77.946 100.177,87.045 101.108,87.045 101.108,80.573 106.714,87.402 
		106.714,78.361 105.784,78.361 	"/>
	<path fill="#004FA3" d="M113.954,78.177c-2.139,0-3.912,2.039-3.912,4.527c0,2.58,1.753,4.526,3.912,4.526
		c2.16,0,3.913-1.946,3.913-4.526C117.867,80.215,116.094,78.177,113.954,78.177z M113.954,86.216c-1.614,0-2.981-1.532-2.981-3.512
		c0-1.912,1.228-3.513,2.981-3.513c1.753,0,2.982,1.601,2.982,3.513C116.936,84.684,115.568,86.216,113.954,86.216z"/>
	<polygon fill="#004FA3" points="118.447,87.045 119.379,87.045 119.379,82.783 121.974,82.783 121.974,81.793 119.379,81.793 
		119.379,79.351 122.064,79.351 122.064,78.361 118.447,78.361 	"/>
	<polygon fill="#004FA3" points="124.983,79.351 126.757,79.351 126.757,87.045 127.688,87.045 127.688,79.351 129.461,79.351 
		129.461,78.361 124.983,78.361 	"/>
	<polygon fill="#004FA3" points="129.981,87.045 133.993,87.045 133.993,86.054 130.912,86.054 130.912,82.772 133.903,82.772 
		133.903,81.781 130.912,81.781 130.912,79.351 133.993,79.351 133.993,78.361 129.981,78.361 	"/>
	<path fill="#004FA3" d="M139.792,86.842l-2.167-4.347l2.149-4.134h-1.06l-1.624,3.167l-1.526-3.167h-1.06l2.06,4.134l-2.348,4.55
		h1.04l1.833-3.559l1.763,3.559h0.858h0.182h0.819l0.852-2.177h3.427l0.852,2.177h1l-3.566-9.053L139.792,86.842z M141.952,83.878
		l1.327-3.513l1.328,3.513H141.952z"/>
	<path fill="#004FA3" d="M149.604,81.908l-0.535-0.242c-0.465-0.208-1.04-0.564-1.04-1.244c0-0.76,0.654-1.232,1.248-1.232
		c0.565,0,0.921,0.276,1.199,0.817l0.743-0.518c-0.406-0.84-1.089-1.313-1.921-1.313c-1.13,0-2.2,0.841-2.2,2.246
		c0,1.209,0.772,1.774,1.625,2.201l0.516,0.252c0.643,0.312,1.287,0.714,1.287,1.647c0,0.91-0.574,1.693-1.376,1.693
		c-0.802,0-1.456-0.69-1.445-1.646l-0.941,0.23c0.158,1.394,1.099,2.43,2.308,2.43c1.337,0,2.387-1.129,2.387-2.707
		C151.456,83.071,150.664,82.392,149.604,81.908z"/>
</g>
</svg>
