<?xml version="1.0" encoding="utf-8"?>
<!-- Generator: Adobe Illustrator 17.1.0, SVG Export Plug-In . SVG Version: 6.00 Build 0)  -->
<!DOCTYPE svg PUBLIC "-//W3C//DTD SVG 1.1//EN" "http://www.w3.org/Graphics/SVG/1.1/DTD/svg11.dtd">
<svg version="1.1" id="Layer_1" xmlns="http://www.w3.org/2000/svg" xmlns:xlink="http://www.w3.org/1999/xlink" x="0px" y="0px"
	 viewBox="360.6 0 556.5 465.6" enable-background="new 360.6 0 556.5 465.6" xml:space="preserve">
<g>
	<path fill="#FFFFFF" d="M724.3,170.4c0,49.1,0.3,98.4-0.3,147.5c0,5.5-4.6,13.8-9.2,16.4c-53.4,27.5-107.3,53.9-161,81.2
		c-10,5.2-13.2,5.2-13.2-7.7c0.6-98.4,0-196.9,0.6-295.3c0-5.5,4.6-13.8,9.5-16.4c53.4-27.5,107.3-53.9,161-81.2
		c10-5.2,13.5-4.9,13.2,8C723.8,71.9,724.3,121.3,724.3,170.4z"/>
	<path fill="#FFFFFF" d="M504.8,258.2c0,48.2,0,96.7,0,144.9c0,4-1.4,8-2,12.1c-3.4-1.4-6.9-2.6-10-4.6
		c-35.3-20.9-70.9-41.6-105.6-63.4c-5.5-3.4-10.6-12.3-10.6-18.7c-0.6-96.7-0.6-193.4-0.3-289.8c0-4,1.1-8,2-12.1
		c3.7,1.7,7.7,2.9,11.5,4.9c34.7,20.9,69.7,41.3,103.9,63.1c5.5,3.4,10.6,12.3,10.6,18.7C505.4,161.5,504.8,210,504.8,258.2z"/>
	<path fill="#FFFFFF" d="M759.6,170.6c0-47.6,0-95.6,0-143.2c0-4,1.1-8,2-12.1c3.7,1.7,7.7,2.9,11.5,4.9
		c34.7,20.7,69.7,41.3,103.9,62.8c5.5,3.4,10.9,12.3,10.9,18.7c0.6,97,0.3,194,0.3,290.7c0,3.7-0.9,7.5-1.1,11.2
		c-3.7-1.4-8-2.3-11.5-4.3c-34.4-20.4-69.2-40.5-102.7-62.3c-6.3-4-12.3-14.3-12.6-21.8C759.4,267.1,759.9,218.9,759.6,170.6
		C759.9,170.6,759.9,170.6,759.6,170.6z"/>
</g>
</svg>
